<?xml version="1.0" standalone="no"?>
<!DOCTYPE svg PUBLIC "-//W3C//DTD SVG 20010904//EN"
 "http://www.w3.org/TR/2001/REC-SVG-20010904/DTD/svg10.dtd">
<svg version="1.0" xmlns="http://www.w3.org/2000/svg"
 width="600.000000pt" height="600.000000pt" viewBox="0 0 600.000000 600.000000"
 preserveAspectRatio="xMidYMid meet">
<metadata>
Created by potrace 1.11, written by Peter Selinger 2001-2013
</metadata>
<g transform="translate(0.000000,600.000000) scale(0.100000,-0.100000)"
fill="#000000" stroke="none">
<path d="M2555 5326 c-14 -51 -17 -88 -13 -158 5 -85 5 -90 -8 -61 -19 45 -63
73 -116 73 -62 0 -104 -29 -119 -82 -6 -24 -13 -50 -16 -58 -8 -24 -23 26 -30
97 -6 62 -17 78 -48 67 -8 -3 -17 -24 -20 -47 -6 -42 7 -165 21 -202 10 -27 0
-17 -35 35 -16 24 -27 49 -24 55 4 5 3 7 -1 3 -4 -4 -22 9 -38 28 -40 45 -81
67 -97 51 -17 -17 -13 -42 10 -63 28 -26 55 -64 64 -93 l7 -23 -29 22 c-92 68
-213 11 -213 -100 l0 -32 -61 56 c-102 95 -180 122 -187 64 -3 -21 3 -30 26
-42 56 -29 122 -123 122 -173 0 -15 -4 -13 -23 9 -47 56 -125 73 -189 42 -46
-22 -70 -59 -76 -115 -5 -58 10 -102 47 -130 14 -12 26 -29 26 -39 0 -10 20
-40 44 -67 78 -84 85 -93 75 -93 -5 0 -40 30 -78 66 -39 37 -75 63 -82 60 -8
-3 -18 3 -24 13 -28 54 -125 77 -188 45 -70 -35 -102 -134 -64 -196 34 -55 57
-70 119 -78 l58 -7 -60 -1 c-100 -2 -173 35 -233 115 -36 48 -74 57 -80 18 -4
-31 45 -112 100 -165 50 -48 52 -60 11 -60 -99 0 -160 -125 -98 -198 28 -33
19 -50 -16 -32 -11 7 -38 27 -59 47 -41 36 -72 40 -78 11 -5 -25 33 -71 99
-119 33 -23 59 -45 59 -49 0 -3 8 -6 17 -7 10 -1 40 -11 67 -23 56 -24 147
-38 190 -30 25 4 36 18 72 88 23 46 50 94 58 107 9 13 16 33 16 45 0 11 4 19
9 18 5 -2 36 33 68 77 33 44 79 100 102 125 52 55 65 77 51 85 -5 3 -10 10
-10 16 0 5 9 4 19 -3 16 -10 23 -9 39 5 10 9 22 17 26 17 4 0 18 13 32 29 26
32 181 151 195 151 5 0 9 7 9 15 0 8 3 14 8 13 13 -3 62 14 62 21 0 4 39 27
86 51 47 25 90 52 94 61 9 16 6 69 -6 144 -8 47 -9 48 50 -33 26 -35 53 -65
60 -68 15 -6 204 48 249 72 16 8 33 12 37 9 5 -3 28 -1 52 4 40 9 159 21 253
25 23 1 46 6 53 10 7 4 18 3 25 -2 7 -5 64 -12 127 -16 63 -3 141 -12 172 -18
32 -7 60 -9 63 -6 3 3 10 25 15 49 l9 44 -3 -47 -4 -48 42 -10 c22 -6 78 -22
122 -35 45 -14 86 -25 92 -25 5 0 27 22 48 50 20 27 42 46 47 43 6 -3 7 -1 4
4 -4 6 7 40 24 76 20 44 34 94 41 154 13 100 6 146 -20 141 -13 -3 -18 -18
-24 -72 -12 -118 -85 -206 -172 -206 -54 0 -98 28 -121 76 l-18 39 -18 -40
c-27 -62 -22 -26 7 51 56 147 19 384 -53 338 -12 -8 -17 -21 -15 -40 10 -81 4
-141 -18 -189 l-23 -50 -7 62 c-4 34 -14 73 -24 87 -19 30 -85 66 -119 66 -39
0 -92 -27 -120 -59 -24 -29 -46 -106 -33 -118 3 -4 1 -12 -5 -20 -6 -7 -15
-65 -19 -129 -5 -64 -11 -118 -14 -122 -3 -3 -6 31 -6 75 0 98 -10 174 -21
167 -5 -3 -6 8 -3 25 12 60 -31 139 -89 160 -106 40 -217 -37 -204 -142 3 -23
8 -51 12 -62 6 -16 3 -15 -14 5 -45 55 -56 91 -56 190 l0 95 -26 3 c-25 3 -28
-1 -44 -62z"/>
<path d="M3573 5173 c-31 -6 -80 -59 -87 -95 -8 -42 27 -116 63 -130 43 -16
112 -4 137 25 12 14 24 24 26 21 3 -2 6 20 7 49 1 42 -3 59 -20 81 -20 26 -77
58 -96 55 -4 -1 -18 -4 -30 -6z"/>
<path d="M3938 5097 c-43 -37 -101 -120 -127 -180 -36 -85 -56 -215 -37 -246
4 -6 37 -25 72 -41 36 -16 76 -38 90 -49 14 -11 38 -23 54 -26 17 -4 30 -11
30 -15 0 -5 33 -33 73 -63 40 -30 86 -66 102 -82 17 -15 50 -44 75 -64 25 -20
47 -40 49 -45 2 -5 24 -32 50 -60 56 -63 101 -117 141 -173 16 -24 37 -43 45
-43 8 0 12 -6 9 -14 -3 -7 6 -30 20 -50 13 -20 41 -70 62 -111 l36 -75 50 0
c131 0 285 70 378 173 33 36 36 49 15 67 -12 10 -22 6 -56 -23 -40 -35 -81
-58 -126 -72 -33 -9 -28 8 6 23 43 19 68 88 52 142 -20 66 -92 104 -155 80
-16 -6 -31 -8 -34 -6 -3 3 4 9 14 13 59 22 177 176 172 223 -2 19 -10 26 -30
28 -16 2 -28 -2 -28 -8 0 -6 -22 -33 -50 -61 -48 -49 -102 -79 -137 -79 -14 1
-12 5 11 22 52 39 72 128 42 186 -28 53 -62 75 -124 80 -53 4 -61 1 -102 -30
-40 -29 -92 -58 -106 -58 -3 0 0 9 6 21 7 11 9 27 6 35 -5 13 5 19 27 15 4 0
6 2 5 6 -1 5 6 20 16 35 71 107 3 237 -125 238 -25 0 -54 -7 -65 -15 -10 -8
-27 -15 -36 -15 -10 0 -15 -5 -12 -13 3 -8 -2 -20 -11 -27 -13 -10 -15 -9 -15
6 1 38 47 110 95 146 57 43 71 64 55 82 -23 29 -49 24 -115 -19 -37 -24 -74
-54 -84 -67 -10 -13 -28 -34 -39 -48 l-21 -25 6 41 c14 108 -99 181 -193 124
-45 -28 -50 -11 -11 40 17 24 38 51 45 60 15 21 6 50 -17 50 -9 0 -33 -15 -53
-33z"/>
<path d="M823 3813 c-7 -2 -13 -13 -13 -22 0 -15 11 -19 69 -23 201 -15 289
-212 132 -295 -40 -22 -44 -22 -99 -8 -69 18 -118 18 -202 0 -68 -14 -104 -42
-93 -72 5 -13 18 -15 79 -10 73 5 131 -5 168 -29 16 -11 13 -13 -28 -19 -83
-13 -144 -75 -146 -149 0 -45 38 -114 73 -132 44 -24 125 -35 275 -41 104 -4
133 -2 136 9 2 7 9 74 15 148 6 74 14 151 17 172 5 30 3 37 -13 41 -15 4 -16
5 -1 6 12 1 21 15 28 44 6 23 23 82 37 131 l27 89 -31 26 c-55 47 -67 56 -126
84 -90 44 -254 71 -304 50z"/>
<path d="M5030 3809 c-65 -11 -199 -75 -254 -123 l-40 -34 27 -89 c14 -48 31
-107 37 -131 9 -36 14 -42 33 -38 12 3 40 8 61 11 22 4 64 16 94 27 l56 21
-38 19 c-68 35 -96 120 -62 187 32 61 132 111 223 111 36 0 43 3 43 19 0 10
-7 22 -16 25 -21 8 -96 6 -164 -5z"/>
<path d="M885 3688 c-35 -27 -57 -80 -49 -116 8 -35 59 -89 91 -97 36 -9 89
12 118 46 19 23 25 42 25 76 0 39 -5 50 -36 79 -44 42 -105 47 -149 12z"/>
<path d="M4992 3683 c-25 -21 -35 -39 -39 -70 -8 -58 10 -96 58 -122 50 -29
93 -23 136 19 38 37 48 80 28 123 -26 58 -41 70 -97 74 -47 4 -57 1 -86 -24z"/>
<path d="M5120 3456 c-30 -7 -82 -24 -116 -39 -33 -14 -83 -29 -111 -33 -76
-10 -77 -11 -64 -85 6 -35 14 -115 18 -178 l6 -114 90 7 c50 3 113 6 141 6
l51 0 -30 19 c-46 28 -76 65 -85 105 -31 139 141 276 308 245 36 -7 49 -6 61
5 23 24 -2 43 -79 60 -80 19 -115 19 -190 2z"/>
<path d="M5085 3289 c-110 -97 -29 -266 117 -246 74 10 129 91 114 170 -4 23
-20 47 -46 71 -36 32 -46 36 -95 36 -46 0 -59 -4 -90 -31z"/>
<path d="M1825 3176 c-121 -45 -162 -203 -78 -300 25 -28 18 -33 -36 -28 l-38
4 -53 121 c-98 225 -87 207 -131 207 -41 0 -37 5 -83 -102 -8 -18 -25 -58 -38
-88 -14 -30 -33 -74 -43 -97 -11 -24 -24 -43 -29 -44 -6 -1 -20 -2 -31 -3 -13
0 -20 -8 -20 -21 0 -18 7 -20 59 -20 57 0 58 0 80 40 l23 40 84 0 84 0 21 -40
20 -40 735 0 734 0 3 118 c1 64 6 117 11 117 4 0 48 -52 97 -115 48 -64 98
-118 109 -121 11 -2 139 -3 285 -2 l265 3 20 42 20 43 77 0 c85 0 108 -5 108
-26 0 -8 7 -26 16 -39 l16 -25 338 0 c300 0 339 2 344 16 8 21 -1 34 -24 34
-10 0 -20 7 -23 15 -5 10 -27 15 -84 17 l-78 3 -3 148 -3 147 -34 0 -35 0 -2
-167 c-3 -150 -5 -166 -21 -169 -9 -1 -22 6 -27 16 -8 16 -24 20 -88 22 l-77
3 -3 148 -3 147 -34 0 -35 0 -2 -167 c-3 -165 -3 -166 -26 -170 -19 -2 -26 4
-39 34 -8 21 -24 57 -34 81 -10 23 -28 62 -39 87 -65 145 -57 135 -99 135 -36
0 -40 -3 -60 -45 -12 -25 -21 -47 -21 -50 0 -3 -16 -40 -36 -82 -20 -43 -43
-95 -51 -115 -15 -37 -36 -53 -55 -42 -6 4 -5 10 3 15 11 6 8 13 -10 33 l-24
26 -32 -20 c-19 -12 -50 -20 -75 -20 -34 0 -48 6 -76 34 -27 27 -34 42 -34 74
0 55 13 85 45 106 34 22 108 23 140 2 34 -22 49 -20 65 8 10 21 10 27 -1 38
-32 30 -74 43 -140 43 -60 0 -71 -3 -106 -31 -63 -51 -83 -89 -83 -156 0 -59
9 -84 44 -125 11 -13 16 -23 13 -24 -4 0 -33 -1 -64 -1 l-58 -1 -3 167 -2 166
-35 0 -34 0 -3 -127 -3 -126 -52 69 c-29 38 -72 95 -95 126 -39 51 -47 57 -80
57 l-38 1 -2 -166 -3 -166 -63 -1 c-34 -1 -62 -1 -62 1 0 2 12 19 27 39 21 28
28 49 31 98 5 78 -20 130 -82 172 -35 24 -51 28 -113 28 -65 0 -75 -3 -110
-31 -62 -50 -83 -89 -83 -154 0 -45 6 -65 30 -103 17 -26 30 -49 30 -50 0 -1
-28 -1 -62 0 l-63 1 -3 166 -2 166 -35 0 -35 0 0 -165 0 -165 -64 0 c-35 0
-71 -3 -80 -6 -14 -5 -16 10 -16 130 l0 136 39 0 c57 0 71 8 71 41 l0 29 -151
0 -150 0 3 -32 c3 -33 4 -33 61 -36 48 -2 58 -6 53 -18 -3 -9 -6 -67 -6 -130
l0 -114 -75 0 c-63 0 -73 2 -68 15 3 9 -2 24 -12 35 -17 19 -18 19 -53 -1 -94
-50 -192 4 -192 105 0 45 54 105 96 107 49 2 68 -1 101 -18 26 -14 34 -15 47
-4 68 57 -92 126 -199 87z m985 -69 c33 -16 70 -73 70 -107 0 -66 -55 -122
-121 -124 -52 -1 -85 20 -109 71 -18 39 -19 50 -9 81 13 43 35 71 64 83 30 12
77 10 105 -4z m-1292 -78 c12 -28 22 -55 22 -60 0 -5 -22 -9 -50 -9 -27 0 -50
3 -50 7 0 14 44 113 49 113 3 0 16 -23 29 -51z m2482 12 c0 -9 4 -21 9 -26 5
-6 12 -20 16 -32 6 -22 4 -23 -44 -23 -28 0 -51 2 -51 5 0 3 9 25 20 47 11 23
20 48 20 56 0 12 3 12 15 2 8 -7 15 -20 15 -29z"/>
<path d="M1025 2989 c-149 -8 -138 -6 -130 -18 3 -6 -9 -8 -29 -4 -112 18
-210 -110 -161 -208 33 -65 67 -84 165 -91 l35 -3 -47 -23 c-46 -23 -123 -30
-195 -19 -29 5 -34 2 -39 -19 -3 -13 -1 -31 6 -38 16 -21 98 -36 191 -36 l79
0 -31 -28 c-25 -23 -33 -38 -36 -78 -8 -83 39 -144 112 -144 28 0 31 -24 4
-26 -8 0 -21 -4 -29 -7 -8 -4 -35 -8 -59 -9 -28 -2 -48 -9 -55 -20 -15 -25 3
-39 55 -45 44 -5 187 13 204 27 6 4 21 11 35 15 32 9 150 87 175 115 21 23 25
1 -40 205 -14 44 -27 100 -29 125 -3 25 -9 79 -15 120 -6 41 -11 103 -11 136
0 38 -5 65 -12 70 -7 5 -71 6 -143 3z"/>
<path d="M4851 2986 c-4 -6 -11 -58 -15 -116 -3 -57 -11 -133 -17 -167 -6 -35
-9 -69 -6 -77 3 -7 1 -18 -4 -23 -6 -6 -26 -63 -44 -128 -25 -87 -32 -123 -24
-136 5 -11 34 -37 63 -58 88 -65 177 -97 301 -107 69 -5 84 -4 98 10 34 35 14
51 -69 59 -34 2 -72 11 -85 18 -23 13 -22 13 22 20 82 12 119 52 119 127 -1
46 -18 78 -55 102 l-29 19 79 -2 c143 -3 215 20 215 67 0 30 -23 37 -85 25
-60 -11 -114 -3 -157 24 l-33 22 56 5 c65 6 125 42 134 80 18 69 16 106 -7
139 -37 55 -73 76 -129 76 -27 0 -49 3 -49 7 0 18 -265 31 -279 14z"/>
<path d="M4674 2223 c-13 -14 -24 -30 -24 -35 0 -5 -21 -46 -47 -91 -25 -45
-46 -88 -46 -94 0 -7 -3 -13 -7 -13 -4 0 -39 -42 -78 -92 -39 -51 -91 -115
-116 -143 l-45 -49 21 -23 c12 -13 19 -25 16 -28 -2 -3 -13 4 -23 15 -18 20
-18 20 -60 -18 -73 -65 -108 -94 -177 -144 l-67 -49 34 -45 c19 -25 35 -51 34
-57 0 -7 -8 -1 -17 13 -9 14 -29 38 -43 54 l-26 29 -59 -34 c-32 -19 -85 -48
-116 -64 l-58 -30 0 -50 c0 -117 58 -250 152 -350 47 -50 59 -58 74 -49 29 17
26 27 -16 72 -43 47 -71 120 -69 181 l2 36 6 -41 c9 -56 35 -93 78 -111 98
-41 197 50 163 151 -6 20 -21 46 -33 56 -11 11 -15 20 -9 20 7 0 11 3 11 8 -5
28 5 19 29 -28 53 -107 213 -233 249 -197 17 17 8 44 -17 52 -11 3 -39 28 -63
55 -124 138 -91 338 62 366 18 4 48 2 67 -4 30 -9 33 -8 25 6 -5 10 -32 39
-60 67 -28 27 -51 53 -51 57 0 18 21 6 67 -38 26 -25 63 -52 81 -60 18 -8 35
-21 38 -28 11 -28 80 -49 136 -42 29 4 58 7 65 8 7 1 10 5 7 10 -3 4 -1 8 4 8
16 0 52 78 52 114 0 47 -34 114 -65 128 -42 19 -28 28 20 13 53 -15 129 -74
150 -115 17 -33 42 -45 61 -29 33 27 2 97 -80 186 l-55 59 34 1 c99 3 157 114
104 199 -12 20 -16 34 -9 34 20 0 65 -28 88 -55 29 -33 66 -31 70 5 2 18 -7
34 -30 55 -113 104 -217 153 -361 169 -43 5 -51 3 -73 -21z"/>
<path d="M1214 2230 c-59 -12 -156 -53 -208 -89 -90 -62 -146 -141 -98 -141 9
0 31 14 47 31 44 45 81 61 154 67 76 6 122 -14 146 -61 17 -35 20 -90 5 -118
-6 -11 -8 -24 -5 -29 5 -9 134 59 178 95 l25 20 -65 118 c-65 117 -65 117
-102 116 -20 -1 -54 -5 -77 -9z"/>
<path d="M1054 2046 c-29 -29 -34 -41 -34 -81 0 -40 5 -52 34 -81 29 -29 41
-34 81 -34 40 0 52 5 81 34 27 27 34 42 34 75 0 80 -40 121 -121 121 -33 0
-47 -6 -75 -34z"/>
<path d="M1400 1940 c-30 -22 -80 -48 -110 -60 -112 -43 -175 -95 -234 -194
-42 -70 -42 -72 -16 -86 16 -9 23 -6 37 11 48 59 86 99 91 94 3 -2 10 2 16 9
16 20 99 46 148 46 115 0 201 -105 170 -207 -6 -19 -7 -33 -3 -31 5 2 51 44
104 93 l96 90 -32 35 c-43 47 -115 135 -157 192 -19 26 -39 47 -45 47 -5 -1
-35 -18 -65 -39z"/>
<path d="M1282 1722 c-72 -39 -95 -135 -49 -203 29 -43 60 -59 117 -59 149 0
194 195 60 262 -44 22 -86 22 -128 0z"/>
<path d="M1668 1653 c-24 -21 -50 -47 -58 -58 -8 -11 -30 -37 -48 -57 -19 -21
-32 -43 -30 -49 2 -7 -11 -26 -30 -44 -29 -26 -35 -40 -40 -83 -5 -62 9 -103
50 -137 51 -43 142 -45 186 -5 12 11 26 20 32 20 6 0 9 4 6 8 -2 4 0 14 5 22
8 11 9 4 5 -24 -7 -52 -47 -110 -102 -149 -36 -25 -44 -37 -42 -57 7 -57 97
-23 190 71 32 33 59 59 60 59 2 0 3 -19 4 -42 0 -24 2 -50 5 -58 6 -21 38 -45
81 -60 51 -19 118 6 141 53 14 28 16 29 16 9 1 -31 -37 -109 -63 -130 -32 -25
-39 -41 -26 -57 18 -22 25 -19 71 22 42 38 105 125 128 178 23 53 41 134 41
188 0 52 0 52 -47 77 -27 13 -79 42 -116 63 -37 21 -72 35 -77 32 -6 -3 -10 0
-10 9 0 8 -30 37 -67 64 -38 27 -98 77 -136 110 -37 34 -72 62 -77 62 -6 0
-29 -17 -52 -37z"/>
<path d="M4350 1462 c-44 -22 -80 -75 -80 -120 0 -44 34 -104 70 -125 41 -25
110 -22 151 6 43 29 59 60 59 117 0 108 -103 171 -200 122z"/>
<path d="M2340 1267 c-25 -20 -85 -108 -109 -161 -28 -61 -51 -164 -51 -233 0
-99 67 -115 71 -18 4 87 39 162 39 84 0 -52 32 -95 90 -119 68 -28 160 40 160
118 0 24 3 33 10 26 6 -6 5 -33 -5 -79 -23 -108 -1 -253 40 -269 42 -16 45
-10 43 87 -2 78 1 99 21 140 12 26 26 47 29 47 4 0 5 -22 4 -50 -6 -82 40
-138 128 -155 86 -16 181 77 168 165 -3 16 -1 30 3 30 10 0 19 59 21 142 3 98
18 72 18 -32 0 -63 4 -93 14 -102 9 -8 12 -26 9 -49 -10 -72 58 -149 136 -156
48 -4 117 29 141 69 17 26 20 45 17 90 -4 65 2 66 30 6 28 -61 36 -111 23
-158 -14 -53 -6 -80 25 -80 40 0 58 49 63 165 2 55 -1 119 -6 143 -8 35 -7 49
9 83 48 99 172 107 242 15 36 -47 48 -80 56 -151 4 -45 10 -61 23 -63 25 -5
33 55 19 152 -12 91 -67 213 -125 281 l-35 39 -88 -27 c-48 -15 -107 -32 -129
-37 l-42 -10 6 -48 c5 -52 -3 -56 -11 -5 -8 48 -16 55 -51 49 -64 -11 -294
-35 -341 -36 -39 0 -270 25 -334 37 -23 4 -36 1 -42 -8 -7 -11 -9 -11 -9 3 0
12 -13 21 -42 28 -24 6 -79 22 -124 35 -91 28 -94 29 -114 12z"/>
<path d="M3535 1038 c-60 -47 -66 -123 -14 -176 36 -36 79 -46 123 -28 72 30
97 107 56 174 -34 55 -115 70 -165 30z"/>
</g>
</svg>
